<?xml version="1.0" encoding="UTF-8" standalone="no"?>
<!-- Created with Inkscape (http://www.inkscape.org/) -->

<svg
   width="4.5107474in"
   height="4.9045844in"
   viewBox="0 0 114.57298 124.57644"
   version="1.1"
   id="svg5"
   inkscape:version="1.3.2 (091e20e, 2023-11-25)"
   xml:space="preserve"
   sodipodi:docname="sr-71.svg"
   xmlns:inkscape="http://www.inkscape.org/namespaces/inkscape"
   xmlns:sodipodi="http://sodipodi.sourceforge.net/DTD/sodipodi-0.dtd"
   xmlns="http://www.w3.org/2000/svg"
   xmlns:svg="http://www.w3.org/2000/svg"><sodipodi:namedview
     id="namedview7"
     pagecolor="#ffffff"
     bordercolor="#000000"
     borderopacity="0.25"
     inkscape:showpageshadow="2"
     inkscape:pageopacity="0.0"
     inkscape:pagecheckerboard="0"
     inkscape:deskcolor="#d1d1d1"
     inkscape:document-units="in"
     showgrid="false"
     inkscape:zoom="0.18499603"
     inkscape:cx="1273.0003"
     inkscape:cy="-1416.2466"
     inkscape:window-width="1440"
     inkscape:window-height="876"
     inkscape:window-x="0"
     inkscape:window-y="24"
     inkscape:window-maximized="0"
     inkscape:current-layer="layer1"
     showguides="true"
     inkscape:export-bgcolor="#ffffffff"><inkscape:grid
       type="axonomgrid"
       id="grid9"
       originx="-5669.842"
       originy="3610.2085"
       spacingy="1"
       gridanglex="30"
       gridanglez="30"
       units="in"
       visible="false" /><sodipodi:guide
       position="-125.18342,332.4518"
       orientation="1,0"
       id="guide615"
       inkscape:locked="false" /><sodipodi:guide
       position="-585.81146,772.75397"
       orientation="1,0"
       id="guide1"
       inkscape:locked="false" /><sodipodi:guide
       position="-353.80823,464.6365"
       orientation="1,0"
       id="guide2"
       inkscape:locked="false" /></sodipodi:namedview><defs
     id="defs2" /><g
     inkscape:label="Layer 1"
     inkscape:groupmode="layer"
     id="layer1"
     transform="translate(-2086.5775,705.55509)"><g
       id="g78"><path
         d="m 2107.6582,-703.10632 c -23.2343,25.67629 -21.0242,100.82509 -21.0242,100.82509 11.7525,-9.93926 22.2698,-21.52569 31.0033,-35.49034 12.2678,-9.20081 17.5622,105.43572 24.0683,32.22697 5.2972,-59.60509 -16.7078,-88.23795 -26.1101,-97.58376 -1.927,-1.79119 -3.4839,-4.43323 -7.9373,0.022 z m 6.1075,31.78124 c 0.7696,-0.0477 1.5087,0.0662 2.19,0.33745 3.5858,1.42779 4.8123,6.80499 2.7394,12.01012 -2.0729,5.20515 -6.6602,8.26706 -10.2459,6.83885 -3.5855,-1.42815 -4.8117,-6.80523 -2.7388,-12.01011 1.626,-4.08266 4.878,-6.97979 8.0553,-7.17631 z"
         style="stroke:#000000;stroke-width:0;stroke-linecap:square;stroke-linejoin:round;stroke-opacity:0"
         id="path76"
         sodipodi:nodetypes="sccsccscssssc" /><path
         style="fill:#000000;fill-opacity:1;stroke:#000000;stroke-width:0;stroke-linecap:square;stroke-linejoin:round;stroke-dasharray:none;stroke-opacity:0"
         d="m 2162.8045,-581.84643 -19.173,-113.81416 c 0,0 32.6349,-22.40433 57.519,7.34285 l -28.2296,7.01971 c -20.7791,6.83506 -9.3517,20.47916 2.9354,18.41395 l 22.8466,-2.99717 -25.4566,26.13542 c -5.7813,6.01322 -3.9381,7.21096 -3.0089,8.98596 5.63,10.48868 18.7529,40.16115 -7.4329,48.91344 z"
         id="path19"
         sodipodi:nodetypes="ccccccccc" /></g></g></svg>
